<?xml version="1.0" encoding="UTF-8" standalone="no"?>
<!-- Created with Inkscape (http://www.inkscape.org/) -->

<svg
   width="123.25755mm"
   height="18.402885mm"
   viewBox="0 0 123.25755 18.402885"
   version="1.1"
   id="svg1"
   inkscape:export-filename="logoRaskovnik.svg"
   inkscape:export-xdpi="96"
   inkscape:export-ydpi="96"
   xmlns:inkscape="http://www.inkscape.org/namespaces/inkscape"
   xmlns:sodipodi="http://sodipodi.sourceforge.net/DTD/sodipodi-0.dtd"
   xmlns="http://www.w3.org/2000/svg"
   xmlns:svg="http://www.w3.org/2000/svg">
  <sodipodi:namedview
     id="namedview1"
     pagecolor="#ffffff"
     bordercolor="#000000"
     borderopacity="0.25"
     inkscape:showpageshadow="2"
     inkscape:pageopacity="0.0"
     inkscape:pagecheckerboard="0"
     inkscape:deskcolor="#d1d1d1"
     inkscape:document-units="mm">
    <inkscape:page
       x="0"
       y="0"
       width="123.25755"
       height="18.402885"
       id="page2"
       margin="0"
       bleed="0" />
  </sodipodi:namedview>
  <defs
     id="defs1" />
  <g
     inkscape:label="Layer 1"
     inkscape:groupmode="layer"
     id="layer1"
     transform="translate(-66.939581,-182.03334)">
    <g
       inkscape:label="Image"
       id="g27348"
       transform="matrix(0.24951484,0,0,0.24951484,104.88176,177.51646)"
       style="fill:#ff0000">
      <path
         style="fill:#ff0000;stroke-width:0.517017"
         d="m -26.49663,91.737117 c -7.206144,-1.33371 -13.332654,-6.365111 -17.353502,-14.251618 -4.031993,-7.908343 -6.027033,-19.521931 -4.978169,-28.979091 0.786595,-7.092138 1.757679,-10.568721 4.576107,-16.382778 2.859763,-5.899252 6.851012,-10.209129 11.370307,-12.278138 5.370256,-2.458546 13.620467,-2.163308 19.69729,0.7049 7.577772,3.576618 13.72029288,13.484172 11.2826334,18.198138 -1.0045285,1.942525 -2.6222283,2.311431 -9.0390884,2.06135 -6.411311,-0.249872 -6.438304,-0.283792 -6.766188,-8.5149 -0.296119,-7.431803 -0.681498,-8.119859 -4.394736,-7.846573 -1.78174,0.131139 -2.193185,0.40271 -2.971984,1.961779 -0.82566,1.652779 -0.904031,4.12912 -0.904784,28.581838 0,28.523346 0.08132,29.535729 2.506473,30.833596 1.841669,0.985599 3.603622,0.664364 4.589777,-0.836804 0.727096,-1.106799 0.970157,-2.880998 1.175254,-8.577284 0.336017,-9.336633 0.15958,-9.156941 8.9900501,-9.156941 8.29321355,0 8.81620879,0.315767 8.47156136,5.11517 -0.57973754,8.073694 -6.85335186,15.532884 -15.26533246,18.150362 -3.161825,0.983827 -8.84421,1.613333 -10.985669,1.216994 z M 76.906984,90.862581 C 69.919283,89.301126 62.577262,83.051596 58.890496,75.526871 55.350834,68.302644 54.519231,64.282792 54.505144,54.329142 c -0.01043,-7.198208 0.164284,-9.172209 1.117249,-12.636941 3.433221,-12.4824 11.924558,-21.387685 21.949257,-23.019251 9.008041,-1.46609 18.782683,3.935039 24.29468,13.424428 6.98243,12.02084 7.09302,30.972324 0.25739,44.111235 -5.608394,10.780027 -15.869087,16.74274 -25.216736,14.653968 z m 6.768748,-5.813883 c 1.559139,-1.410993 2.939941,-5.493078 3.570606,-10.555862 0.898006,-7.208866 0.430027,-40.692355 -0.617817,-44.205025 -1.516101,-5.082327 -2.774464,-6.753618 -5.494642,-7.297651 -2.297367,-0.459464 -4.847712,2.163934 -6.124159,6.299622 -0.854876,2.76983 -0.946326,5.214313 -0.946326,25.297863 0,25.133383 0.185553,26.656875 3.671439,30.142761 1.517179,1.517178 2.019333,1.730674 3.414396,1.451666 0.899582,-0.179912 2.036513,-0.689932 2.526503,-1.133374 z m -235.006052,4.648373 c -0.73924,-0.739203 -0.80898,-4.275749 -0.68325,-34.614558 0.11145,-26.889729 0.27742,-33.928461 0.81225,-34.463145 0.52979,-0.529564 5.20824,-0.671906 22.08408,-0.671906 24.31464,0 22.95366,-0.251193 23.39267,4.317476 0.29503,3.070595 -1.13149,8.216673 -3.89067,14.035399 -2.21925,4.679849 -6.6631,9.323461 -11.23511,11.739966 -2.59984,1.374141 -2.93351,1.698411 -2.06805,2.009497 4.05187,1.456405 13.20367,10.139319 15.53414,14.73833 1.9305,3.809692 3.14934,9.220367 3.54083,15.718483 0.49795,8.266244 0.78828,8.013777 -9.21425,8.013777 h -7.91579 l -0.2864,-9.435578 c -0.29193,-9.615675 -0.74394,-12.317016 -2.86202,-17.105356 -2.14908,-4.858336 -6.10514,-8.616279 -9.07067,-8.616279 h -1.36074 V 72.941784 90.52039 h -7.97689 c -6.60694,0 -8.1182,-0.141393 -8.80013,-0.823319 z m 21.14737,-41.375846 c 2.66129,-1.021269 7.0101,-11.63495 6.99644,-17.075641 -0.008,-1.664213 -0.29562,-3.594748 -0.64748,-4.29009 -0.96856,-1.913842 -3.50831,-3.123572 -7.30134,-3.477777 l -3.41797,-0.319172 v 12.741702 12.741691 h 1.76724 c 0.972,0 2.14339,-0.144311 2.60311,-0.320713 z m 32.05585,40.930121 c -2.65323,-2.653264 -1.174663,-9.471607 4.601848,-21.221234 4.050935,-8.239623 5.663781,-10.474792 9.705158,-13.44987 l 3.150344,-2.31917 h 5.113363 5.113282 V 39.07712 c 0,-15.732547 0.173493,-15.256563 -5.557918,-15.244966 -1.919437,0.0046 -3.97298,0.136781 -4.563457,0.295342 -1.600276,0.429715 -2.87451,3.011999 -3.187056,6.458415 l -0.277675,3.06252 h -8.384237 -8.384232 l -0.32957,-3.489871 c -0.18129,-1.919437 -0.33123,-4.69813 -0.33325,-6.1749 -0.008,-4.491029 -1.12202,-4.294713 24.411204,-4.294713 21.504842,0 22.145596,0.02896 23.161686,1.045006 1.030247,1.030212 1.043072,1.521604 0.904784,34.682039 -0.135948,32.614873 -0.170656,33.659323 -1.143743,34.37071 -0.82742,0.604865 -4.666793,0.733688 -21.867584,0.733688 H -96.858056 Z M -70.443105,71.907749 V 56.91423 h -1.791541 c -2.989837,0 -5.176142,2.393405 -6.772815,7.414299 -2.752974,8.656964 -3.566817,16.507453 -2.021186,19.496305 0.433827,0.838959 0.840905,1.52888 0.904783,1.533166 0.06372,0.0046 1.046593,0.34306 2.183953,0.752826 1.137452,0.409777 3.289558,0.75527 4.782467,0.767747 l 2.714339,0.02271 z M 3.1026879,90.177978 c -0.5080045,-0.204993 -0.6462921,-7.70459 -0.6462921,-35.06107 0,-31.256395 0.082947,-34.832271 0.8178628,-35.114129 0.4497446,-0.172613 4.1640824,-0.313832 8.2540684,-0.313832 6.822849,0 7.480379,0.08248 7.971446,1.000045 0.333758,0.623563 0.535241,6.65743 0.535241,16.027554 v 15.027509 h 1.470955 c 2.945247,0 4.061569,-2.444448 6.262875,-13.713192 1.803196,-9.230307 3.425182,-13.341099 6.496645,-16.464995 3.18672,-3.241169 7.060719,-4.242778 11.042006,-2.854909 2.652649,0.924721 3.332468,2.886026 3.564975,10.284315 0.350092,11.140163 -1.260576,13.13182 -6.74113,8.335903 -3.566655,-3.121104 -4.512924,-3.462091 -6.605276,-2.380141 -2.24388,1.160379 -3.893693,5.04309 -3.65683,8.606304 0.03186,0.473609 1.841402,2.800182 4.02218,5.170175 9.639945,10.476645 12.93445,18.305888 13.46508,31.999049 0.404656,10.441531 0.987591,9.793826 -8.814031,9.793826 -5.449044,0 -8.08427,-0.192064 -8.512641,-0.620423 -0.432738,-0.432773 -0.6204,-3.219123 -0.6204,-9.212479 0,-9.199758 -0.461561,-11.829331 -2.933593,-16.710905 -1.621986,-3.202939 -4.962332,-6.829997 -6.918064,-7.511774 l -1.522751,-0.530826 v 16.67278 c 0,12.278369 -0.16352,16.836299 -0.620389,17.293204 -0.618141,0.618129 -14.8671403,0.860981 -16.3119371,0.278011 z M 115.97877,89.707925 c -0.72164,-0.721628 -0.81247,-4.504339 -0.81247,-33.840335 0,-23.838272 0.16586,-33.391899 0.5961,-34.336164 0.38845,-0.852524 1.15389,-1.410193 2.19732,-1.600855 0.88069,-0.160924 10.60865,-0.222949 21.61772,-0.137847 22.72237,0.175648 21.56068,-0.06047 21.99622,4.472214 0.29506,3.070595 -1.13147,8.216673 -3.8907,14.035399 -2.21917,4.679849 -6.66307,9.323461 -11.23507,11.739966 -2.59982,1.374141 -2.93354,1.698411 -2.06806,2.009497 2.0674,0.743107 7.31785,4.83395 10.65415,8.301115 5.70471,5.928446 7.41665,10.260774 8.29763,20.998424 0.54173,6.602854 0.51678,7.189009 -0.34658,8.143028 -0.90156,0.996199 -1.6311,1.028023 -23.56208,1.028023 -19.88494,0 -22.73034,-0.09859 -23.44418,-0.812465 z m 28.11326,-4.33044 c 4.05712,-4.05712 1.62135,-20.048344 -4.03504,-26.490609 -1.74535,-1.987846 -4.45944,-3.523699 -6.22692,-3.523699 -1.07652,0 -1.08515,0.115976 -1.08515,14.565044 0,17.481028 -0.37534,16.456029 6.02583,16.456029 3.58621,0 4.48447,-0.169949 5.32128,-1.006765 z M 138.0002,47.651937 c 1.59031,-1.250937 4.13973,-6.504233 5.33251,-10.988102 1.22819,-4.617036 0.9215,-9.23457 -0.73015,-10.992654 -1.23409,-1.313646 -4.81958,-2.363111 -8.07353,-2.363111 h -1.78411 v 12.666945 12.666923 h 1.99834 c 1.18585,0 2.51007,-0.402513 3.25694,-0.990001 z m 35.60731,41.868408 c -0.35318,-0.659928 -0.5352,-12.428427 -0.5352,-34.603263 0,-29.859026 0.0905,-33.693753 0.81245,-34.415682 0.6572,-0.657194 2.11454,-0.811109 7.62601,-0.805398 3.74746,0.0046 7.33704,0.147347 7.97684,0.318814 l 1.1633,0.311746 V 37.586355 54.84616 h 6.97287 6.97286 l 0.13614,-17.449344 0.13613,-17.449354 7.86384,-0.142621 c 7.78677,-0.141207 7.87177,-0.130525 8.67119,1.08955 0.71453,1.09051 0.7912,5.079002 0.66694,34.695396 -0.13611,32.442723 -0.171,33.485609 -1.14398,34.196915 -1.31846,0.963854 -14.74857,1.060773 -15.69608,0.113299 -0.44078,-0.440778 -0.62042,-3.584657 -0.62042,-10.857367 V 68.805678 h -6.97975 -6.97974 v 10.001715 c 0,9.032891 -0.0916,10.084604 -0.94549,10.857368 -0.78594,0.711259 -2.1789,0.855664 -8.25409,0.855664 -6.69666,0 -7.35342,-0.08376 -7.84382,-1.000046 z m 61.28536,0.18758 c -0.72214,-0.722126 -0.81247,-4.594804 -0.81247,-34.835387 0,-28.361808 0.11919,-34.121857 0.71632,-34.617419 0.48705,-0.404228 3.16875,-0.548598 8.37883,-0.451077 l 7.66253,0.14342 0.35893,1.292538 c 0.19742,0.7109 0.39081,10.947856 0.42978,22.748781 l 0.0708,21.456243 6.70192,-18.527597 c 6.31193,-17.449413 6.70194,-18.749632 6.70194,-22.342827 0,-3.242872 0.15003,-3.895524 1.00005,-4.350447 0.55002,-0.29437 4.05518,-0.535206 7.78925,-0.535206 3.73407,0 7.23923,0.240836 7.78925,0.535206 0.97327,0.520887 1.00006,1.4525 1.00006,34.795304 0,25.957385 -0.15036,34.410445 -0.62042,34.88051 -0.42408,0.424072 -2.93494,0.620423 -7.93365,0.620423 -6.42833,0 -7.41677,-0.114342 -8.16888,-0.945493 -0.76491,-0.845214 -0.85913,-3.134403 -0.88844,-21.585494 -0.0189,-11.920955 -0.21951,-20.203187 -0.47484,-19.605968 -0.24313,0.568721 -3.16421,7.897443 -6.49129,16.286069 -5.7318,14.45164 -6.06821,15.505114 -6.4107,20.074966 -0.24781,3.306356 -0.59431,4.970279 -1.10194,5.291514 -0.40727,0.257715 -3.92291,0.472138 -7.81254,0.476493 -5.74727,0.007 -7.22426,-0.144277 -7.88453,-0.804552 z m 60.31159,0.204576 c -0.90838,-0.908375 -0.92059,-68.69508 -0.0125,-69.603131 0.65358,-0.653579 14.54834,-0.917526 16.14038,-0.306591 0.72053,0.276483 0.81781,2.154272 0.81781,15.785258 0,16.830356 -0.0653,16.4738 2.88236,15.733984 1.95784,-0.491392 3.20131,-3.809148 5.17451,-13.806426 1.06953,-5.418819 2.19572,-9.601796 3.02651,-11.241264 2.77904,-5.484181 6.56678,-8.310104 11.14839,-8.317472 5.44213,-0.0093 6.86021,2.410076 6.93083,11.822264 0.0777,10.351124 -1.36234,11.858803 -6.9041,7.228224 -3.93048,-3.284206 -5.65436,-3.523617 -7.83101,-1.087556 -1.43172,1.602396 -2.5277,4.499184 -2.53319,6.695555 -10e-4,0.712638 1.40735,2.687648 3.68882,5.170175 6.23545,6.784932 11.01031,14.742604 12.53795,20.895285 1.82641,7.35612 2.24039,19.16695 0.73541,20.980386 -0.66014,0.795389 -15.21486,0.93195 -16.44805,0.154333 -0.63109,-0.397949 -0.82537,-2.394495 -1.04318,-10.720204 l -0.26764,-10.231163 -1.83817,-3.877637 c -2.12014,-4.472435 -6.04967,-8.789309 -8.00064,-8.789309 h -1.24467 l -0.13632,16.932338 -0.13632,16.932337 -8.0271,0.141786 c -5.80598,0.102525 -8.20221,-0.03336 -8.66003,-0.491172 z"
         id="path27462" />
    </g>
  </g>
</svg>
